<svg width="100%" height="100%" viewBox="0 0 1200 1200" version="1.1" xmlns="http://www.w3.org/2000/svg" xmlns:xlink="http://www.w3.org/1999/xlink" xml:space="preserve" xmlns:serif="http://www.serif.com/" style="fill-rule:evenodd;clip-rule:evenodd;stroke-linejoin:round;stroke-miterlimit:2;">
    <path d="M797.294,950L128.8,950C73,949.3 23,903.9 20,841.3L20,225L165,225L165,152.5L1180,152.5L1180,567.843C1159.655,543.477 1135.119,522.733 1107.5,506.717L1107.5,225L237.5,225L237.5,841.2C237.5,853.7 235.4,865.8 231.2,877.5L736.322,877.5C752.292,905.108 772.984,929.643 797.294,950ZM128.7,877.5C147.9,877.3 163.4,862.3 165,841.3L165,297.5L92.5,297.5L92.5,841.3C92.7,860.4 107.7,875.9 128.7,877.5Z" style="fill:rgb(145,157,225);"/>
    <path d="M822.125,515L745,515L745,442.5L1035,442.5L1035,477.716C1014.63,472.835 993.367,470.25 971.5,470.25C916.315,470.25 864.975,486.715 822.125,515Z" style="fill:rgb(145,157,225);"/>
    <rect x="310" y="732.5" width="362.5" height="72.5" style="fill:rgb(145,157,225);"/>
    <path d="M310,660L310,297.5L672.5,297.5L672.5,660L310,660ZM382.5,587.5L600,587.5L600,370L382.5,370L382.5,587.5Z" style="fill:rgb(145,157,225);"/>
    <rect x="745" y="297.5" width="290" height="72.5" style="fill:rgb(145,157,225);"/>
    <g transform="matrix(1.220085,0,0,1.220085,686,504.155436)">
        <path d="M317.938,47.482C384.574,85.464 417.399,163.46 397.977,237.66C378.555,311.86 311.726,363.771 235.028,364.236C234.613,364.239 234.201,364.234 233.79,364.221L233.79,419.236L143,326.736L233.79,234.236L233.79,297.252L234.205,297.242L234.622,297.237C281.003,296.956 321.416,265.564 333.161,220.694C344.906,175.824 325.055,128.658 284.76,105.69C244.464,82.722 193.766,89.675 161.143,122.644C128.845,155.284 122.232,205.368 144.799,245.228L145.492,246.433C154.823,262.409 149.436,282.925 133.46,292.256C117.483,301.586 96.968,296.199 87.637,280.223C48.955,213.992 59.569,130.038 113.518,75.518C167.466,20.998 251.303,9.5 317.938,47.482Z" style="fill:rgb(90,100,184);fill-rule:nonzero;"/>
    </g>
</svg>
